PathFileType	4	(X/Y/Z)	/Users/niels/Desktop/University/Third Semester/Perception and Action/Exam/Gymnastics Motion Tracking/Code for Gym Tracking/Analyzed Data/Webcam_Backflip/id12_2_trajectory_Sports2D/id12_2_trajectory_Sports2D_px_person00.trc
DataRate	CameraRate	NumFrames	NumMarkers	Units	OrigDataRate	OrigDataStartFrame	OrigNumFrames
29.714285714285715	29.714285714285715	8	22	m	29.714285714285715	65	105
Frame#	Time	Hip			RHip			RKnee			RAnkle			RBigToe			RSmallToe			RHeel			LHip			LKnee			LAnkle			LBigToe			LSmallToe			LHeel			Neck			Head			Nose			RShoulder			RElbow			RWrist			LShoulder			LElbow			LWrist		
		X1	Y1	Z1	X2	Y2	Z2	X3	Y3	Z3	X4	Y4	Z4	X5	Y5	Z5	X6	Y6	Z6	X7	Y7	Z7	X8	Y8	Z8	X9	Y9	Z9	X10	Y10	Z10	X11	Y11	Z11	X12	Y12	Z12	X13	Y13	Z13	X14	Y14	Z14	X15	Y15	Z15	X16	Y16	Z16	X17	Y17	Z17	X18	Y18	Z18	X19	Y19	Z19	X20	Y20	Z20	X21	Y21	Z21	X22	Y22	Z22
65	2.1875	0.9468432303012996	-0.5810255552008463	0.0	0.9261790630540586	-0.5825763078616414	0.0	0.8784893761471169	-0.7861212733882149	0.0	0.8053509954900702	-0.9829173044156511	0.0	0.8852655512236954	-1.021579498154792	0.0	0.8584640021828618	-1.0306069212759248	0.0	0.7823742922085624	-1.0084904436558388	0.0	0.97975534772489	-0.5829543751023075	0.0	1.0350412943767437	-0.7747858881431517	0.0	1.0625204667379853	-0.9714295462998193	0.0	1.1535007769329255	-1.0018103718433151	0.0	1.1444038758769262	-0.9939481948483296	0.0	1.050538065969768	-0.9992214264539846	0.0	0.9882950045616744	-0.26914547130563515	0.0	1.0315866415949533	-0.12857411212716974	0.0	1.0617087814830148	-0.21499085109958951	0.0	0.950950377104482	-0.3190146629572606	0.0	0.9143971891074961	-0.4760033446283986	0.0	0.9029818351279585	-0.6339017610945973	0.0	0.9964945046445705	-0.31155366910335613	0.0	0.9886367583975738	-0.43659076039556244	0.0	1.059260113232135	-0.48471548739048914	0.0
66	2.2211538461538463	0.9451227619578679	-0.5799322072983959	0.0	0.9229062335621342	-0.5814632917911625	0.0	0.8801160211584578	-0.7867204041455772	0.0	0.8052732585819409	-0.9830790475015669	0.0	0.8852522576925728	-1.0218490380599836	0.0	0.8582069293364457	-1.0311494138139061	0.0	0.7826089676841075	-1.0085044432893981	0.0	0.9785994983678908	-0.5822736659088972	0.0	1.0353996985331098	-0.7745296120727932	0.0	1.0616558451098255	-0.971423682977356	0.0	1.1520004338062224	-1.0014386334450167	0.0	1.143727818634341	-0.9935412392887322	0.0	1.0495329606062591	-0.9990647137398104	0.0	0.9876821056299974	-0.26944387394721936	0.0	1.0299514679121866	-0.12989073020244696	0.0	1.0605168455365777	-0.2151626331271578	0.0	0.9500687121806184	-0.31853328632768146	0.0	0.9158186310070686	-0.476209957623049	0.0	0.9135676800533671	-0.6348597876469656	0.0	0.9966766143585978	-0.3114005095990373	0.0	0.9932412567665206	-0.43678771362355395	0.0	1.0658193664046147	-0.48420397351121397	0.0
67	2.254807692307692	0.9440041012054514	-0.5776713729640635	0.0	0.9211821274973554	-0.5791808579210606	0.0	0.88217273177737	-0.786255263115904	0.0	0.8042543352189052	-0.9827692145282839	0.0	0.8847696342015918	-1.0221629617696664	0.0	0.8572129821372838	-1.0315059769096178	0.0	0.7818566153721324	-1.0079364433526845	0.0	0.9782229986553796	-0.5803826600517642	0.0	1.036824225054207	-0.773307041838468	0.0	1.0601154048786072	-0.9713654661372755	0.0	1.1504473027171915	-1.001307905375523	0.0	1.1428291154820283	-0.9935022521345874	0.0	1.0482324003861525	-0.9986904023139096	0.0	0.9881154371669102	-0.26911816228955004	0.0	1.0295076197558184	-0.13079092788331456	0.0	1.0603543996046592	-0.21491529938239035	0.0	0.9511730965655639	-0.31731314066363664	0.0	0.9210291542513505	-0.4754026812463346	0.0	0.9297953502823691	-0.6344712424962324	0.0	0.9972111533825995	-0.31046854721862666	0.0	0.9968030302294109	-0.4373633969667257	0.0	1.070822016574638	-0.48544334572209846	0.0
68	2.2884615384615383	0.9438791955564092	-0.5746152732266456	0.0	0.9212784185812609	-0.5760424785919075	0.0	0.8845509545600123	-0.7850437243483088	0.0	0.8026071851219785	-0.9819510424430298	0.0	0.8840583489960282	-1.0227971658773791	0.0	0.8559450690403719	-1.031929733570009	0.0	0.7804942277711359	-1.0067696359747904	0.0	0.9788115978406257	-0.5775875015184535	0.0	1.0390264031520209	-0.7715479672162643	0.0	1.0575814263633707	-0.9713608860722716	0.0	1.1484723425046215	-1.0015487685044493	0.0	1.1414324788221966	-0.9938170642577046	0.0	1.0461516881064739	-0.9983075596327228	0.0	0.9897197565851715	-0.26815229712564587	0.0	1.0304519513323878	-0.1311020074194711	0.0	1.061422853921496	-0.21419625569902112	0.0	0.9541913050213863	-0.3154600973563705	0.0	0.9292991005784231	-0.47383967914323155	0.0	0.9507646882855617	-0.6319338598022741	0.0	0.9981955260671923	-0.30895663709234517	0.0	0.9999635900176479	-0.4383051890854692	0.0	1.0747904454467194	-0.48868193298639423	0.0
69	2.3221153846153846	0.9451890032059235	-0.5714428163446437	0.0	0.9234774699344159	-0.5726955537289171	0.0	0.8875636396877649	-0.7836462344736916	0.0	0.8010434344556095	-0.9807119764666357	0.0	0.8835556416532097	-1.0239643837193684	0.0	0.8550488540786149	-1.0326546246393828	0.0	0.7791771283045369	-1.0050883482312791	0.0	0.9805927849523508	-0.5745810775959668	0.0	1.0417954703769974	-0.7699992443040737	0.0	1.0541673402893952	-0.9716184647497729	0.0	1.1456498012787901	-1.0021970786585326	0.0	1.1391485217195978	-0.9944771226145819	0.0	1.0428358295576878	-0.9982390327787355	0.0	0.992567269634192	-0.26690907241048456	0.0	1.0328351125804882	-0.1309283110742491	0.0	1.0637766855777515	-0.21327762948894485	0.0	0.959059282508788	-0.3134632762027691	0.0	0.9398519524645408	-0.47240983936483155	0.0	0.975136981248554	-0.6274713108293279	0.0	0.9994895594612486	-0.30734368282834484	0.0	1.0031434028392603	-0.4398233862698137	0.0	1.0780449972317927	-0.49481802267049846	0.0
70	2.355769230769231	0.9482440938738983	-0.5688788499856884	0.0	0.9279692446330087	-0.5698261126901578	0.0	0.8920020265085153	-0.7825981624789822	0.0	0.8008389513774814	-0.9791951679210141	0.0	0.884043190421759	-1.0256711916397625	0.0	0.8554697632399154	-1.0337633472525862	0.0	0.7788754827190492	-1.0030239952270499	0.0	0.9837401400586153	-0.5721089812335982	0.0	1.0448262850988503	-0.7693509968759484	0.0	1.0504797409732145	-0.9723285294165358	0.0	1.1415025645611705	-1.003183170448359	0.0	1.1352409114584676	-0.9954573480218382	0.0	1.0378363518928453	-0.9987841494263554	0.0	0.9967336640781045	-0.26585397037536873	0.0	1.036640539098745	-0.13056121885885083	0.0	1.0673870623945816	-0.21256370193127963	0.0	0.965663650976923	-0.3117609191981213	0.0	0.9518799521096452	-0.47180505341485374	0.0	1.000900920271263	-0.6219782816625065	0.0	1.000952916291239	-0.3060505966622704	0.0	1.0064503804913414	-0.44207836429894165	0.0	1.0802574073146005	-0.5047258835162484	0.0
71	2.3894230769230766	0.9530651639196973	-0.5674703980384088	0.0	0.9347948578656373	-0.5679431455341974	0.0	0.8989415355536731	-0.7822268277839185	0.0	0.8039340532342655	-0.9775436120684318	0.0	0.8869158482160974	-1.027641255019268	0.0	0.8587331787456525	-1.0350824885764554	0.0	0.7809173483315397	-1.0007147763373623	0.0	0.9882168055184469	-0.5706634638497065	0.0	1.047547041497287	-0.7699534417206989	0.0	1.0473671306420136	-0.9735165692204157	0.0	1.1354266578103858	-1.0044202429661895	0.0	1.1283682633366527	-0.9967149118161488	0.0	1.0303960007001003	-0.999978677477786	0.0	1.0022845717341065	-0.26527342342314447	0.0	1.0418593140468764	-0.1303349433620866	0.0	1.0722417297853808	-0.2123819896252113	0.0	0.9737816448643629	-0.31043789871396327	0.0	0.9643933702287836	-0.4718493900645216	0.0	1.0249749493752278	-0.616389306722695	0.0	1.0026512728590664	-0.3052526483942993	0.0	1.0095318465883378	-0.44504147999530935	0.0	1.080215070907984	-0.5185584125171772	0.0
72	2.423076923076923	0.9594203920629379	-0.5674089922250843	0.0	0.9438084612430611	-0.5672570299684753	0.0	0.909514858878264	-0.7825652617929549	0.0	0.8128108604282703	-0.9758348162150071	0.0	0.8942575990270649	-1.0293236932979486	0.0	0.8670431034698737	-1.0361317603539386	0.0	0.7869078574310235	-0.9982628416641971	0.0	0.993780110817963	-0.5703462653572774	0.0	1.0491492670190339	-0.7717871806211838	0.0	1.0454471556026699	-0.9749600501043256	0.0	1.126621248475992	-1.0058955618864829	0.0	1.1165356810338558	-0.9982238143213842	0.0	1.019060182884535	-1.0014127940531379	0.0	1.0092240687240062	-0.26515196699192983	0.0	1.0485141828147484	-0.13049053412526723	0.0	1.0783815645370907	-0.21286735369382362	0.0	0.9830374469286839	-0.3092660811020791	0.0	0.9760400932005722	-0.47151994924014917	0.0	1.043190783077468	-0.6111821413881984	0.0	1.0049699822324913	-0.3048930227882134	0.0	1.011453164005147	-0.44836127044908325	0.0	1.0760049819826327	-0.5350102796117122	0.0
